<svg fill="none" xmlns="http://www.w3.org/2000/svg" viewBox="0 0 512 512">
  <style>
    path {
      fill: #F6FAFE;
    }

    @media (prefers-color-scheme: dark) {
      path: {
        fill: #123440;
      }
    }
  </style>
  <path d="m339.051 386.093 22.15-48.961 1.505-.674c23.283-10.428 36.529-26.191 40.174-47.573 5.522-32.399 1.552-49.824-10.348-53.589-2.663-.841-5.117-.898-7.474-.204l-6.728 1.976 7.278-41.19c3.661-61.097-4.685-104.869-24.711-131.315-28.046-37.04-49.749-46.36-114.576-52.922-26.5-2.683-50.183.406-70.888 8.017-15.702 5.772-28.72 13.815-37.968 22.235-9.076 8.267-19.2 37.12-29.531 85.614v129.874c-2.969 21.541-2.969 41.936-.047 61.497 2.93 19.629 9.782 44.98 20.559 76.003 17.648 37.954 36.765 56.083 56.987 55.41 21.401-.713 72.969-22.169 153.618-64.198Zm56.105-159.081c17.564 5.553 22.472 27.102 16.296 63.333-4.074 23.893-18.772 41.764-43.679 53.352l-22.037 48.71-1.331.695c-82.768 43.193-135.293 65.094-158.682 65.874-24.649.822-46.277-19.73-65.256-60.634-11.143-31.988-18.152-57.897-21.183-78.182-3.032-20.302-3.043-41.429-.045-63.372V126.593c10.876-51.18 21.352-81.09 32.37-91.124 10.061-9.161 24.041-17.797 40.822-23.967 21.935-8.06 46.94-11.323 74.766-8.507 67.006 6.782 90.887 17.04 120.635 56.324 21.546 28.453 30.252 74.23 26.442 137.332l-5.146 29.286c1.989.076 4 .434 6.028 1.075Z" />
  <path d="m175.768 228.13-3.874 7.808c-15.238-7.697-27.396-11.497-36.315-11.497-8.322 0-14.695 3.305-19.539 10.133l-7.04-5.08c6.467-9.12 15.463-13.784 26.577-13.784 10.516 0 23.86 4.169 40.191 12.42Zm44.464 5.178-5.438-6.793c13.697-11.157 30.526-14.844 50.138-11.102 19.558 3.732 34.342 13.402 44.068 28.922L301.681 249c-8.404-13.411-21.095-21.715-38.357-25.009-17.21-3.283-31.457-.163-43.092 9.317Z" />
  <path d="M253.742 262.28a14.32 14.32 0 0 1-10.082-4.141 14.082 14.082 0 0 1-4.176-9.999c0-3.75 1.502-7.347 4.176-9.998A14.317 14.317 0 0 1 253.742 234a14.32 14.32 0 0 1 10.082 4.142A14.078 14.078 0 0 1 268 248.14c0 3.75-1.502 7.347-4.176 9.999a14.322 14.322 0 0 1-10.082 4.141Zm0-8.701a5.51 5.51 0 0 0 3.878-1.593 5.42 5.42 0 0 0 1.606-3.846 5.42 5.42 0 0 0-1.606-3.846 5.513 5.513 0 0 0-3.878-1.592 5.513 5.513 0 0 0-3.878 1.592 5.42 5.42 0 0 0-1.606 3.846 5.42 5.42 0 0 0 1.606 3.846 5.51 5.51 0 0 0 3.878 1.593Zm-107.484 13.052a14.32 14.32 0 0 1-10.082-4.142 14.078 14.078 0 0 1-4.176-9.998c0-3.75 1.502-7.347 4.176-9.999a14.322 14.322 0 0 1 10.082-4.141 14.32 14.32 0 0 1 10.082 4.141 14.082 14.082 0 0 1 4.176 9.999c0 3.75-1.502 7.347-4.176 9.998a14.317 14.317 0 0 1-10.082 4.142Zm0-8.702a5.51 5.51 0 0 0 3.878-1.593 5.417 5.417 0 0 0 1.606-3.845 5.417 5.417 0 0 0-1.606-3.846 5.51 5.51 0 0 0-3.878-1.593 5.51 5.51 0 0 0-3.878 1.593 5.417 5.417 0 0 0-1.606 3.846c0 1.442.578 2.825 1.606 3.845a5.51 5.51 0 0 0 3.878 1.593Zm38.308-13.27 8.456 2.319L176 307.976l-.114.348c-4.29 11.517-2.255 17.939 6.059 21.319 8.52 3.459 13.194 1.691 16.162-5.858l1.092-2.778 3.008.009c9.871.03 12.841-1.719 12.347-4.817-.923-5.791-2.507-9.682-4.519-11.71l6.252-6.104c3.514 3.539 5.747 9.034 6.932 16.453 1.504 9.419-5.475 14.242-18.158 14.82-5.16 10.053-14.533 12.874-26.442 8.036-13.077-5.314-16.736-16.726-11.029-32.211l16.976-60.824Z" />
  <path d="m172.755 327.525 2.43 8.367c-9.155 2.642-15.944 2.073-19.905-2.681-3.751-4.499-3.751-12.671-.902-25.211l8.521 1.925c-1.21 5.332-1.807 9.629-1.807 12.837 0 2.657.406 4.279.909 4.882 1.145 1.375 4.58 1.662 10.754-.119ZM145 366.023l4.807-7.274c7.544 4.95 19.9 7.54 37.015 7.54 17.534 0 38.287-2.712 62.238-8.15l1.94 8.494c-24.543 5.573-45.927 8.367-64.178 8.367-18.666 0-32.591-2.918-41.822-8.977Z" />
  <path d="m116 478.917 16.053-107.459 8.579 1.29-14.808 99.123 28.249 5.177 20.076 24.825 44.015-4.425 40.951-.022 25.69-44.845-18.52-79.487 8.449-1.98 19.297 82.826-29.895 52.187h-45.323L170.36 511l-21.004-25.971L116 478.917Zm9.963-324.091-6.268-6.015 25.014-26.221 2.429 6.469c5.79 15.432 15.315 21.275 29.728 18.488 15.294-2.958 30.184-14.62 44.573-35.281l2.093-3.004 3.305 1.558c25.627 12.072 42.766 18.117 50.68 18.117 6.727 0 12.148-4.916 16.393-15.768l3.587-9.169 23.308 47.432-.492 1.64c-3.7 12.299-3.7 25.255.031 38.964 3.771 13.854 11.038 27.311 21.847 40.382l.707.855 4.745 24.424c1.253-3.981 2.871-7.548 4.86-10.703 5.968-9.473 16.445-17.097 31.303-23.003l3.194 8.092c-13.287 5.277-22.298 11.838-27.163 19.558-4.89 7.761-7.193 19.229-6.742 34.426l-8.592.961-9.697-49.92c-11.181-13.726-18.804-27.987-22.829-42.779-3.984-14.64-4.142-28.699-.449-42.101l-13.567-27.604c-5.173 8.514-12.006 13.012-20.444 13.012-9.267 0-26.079-5.797-51.09-17.408-14.955 20.534-30.904 32.57-47.919 35.861-16.573 3.202-29.097-2.954-36.77-17.802l-15.773 16.539h-.002Z" />
</svg>